<?xml version="1.0" encoding="utf-8"?>
<!-- Generator: Adobe Illustrator 20.1.0, SVG Export Plug-In . SVG Version: 6.00 Build 0)  -->
<svg version="1.1" id="Слой_1" xmlns="http://www.w3.org/2000/svg" xmlns:xlink="http://www.w3.org/1999/xlink" x="0px" y="0px"
	 viewBox="0 0 324.7 93.6" style="enable-background:new 0 0 324.7 93.6;" xml:space="preserve">
<style type="text/css">
	.st0{fill:#F5F5F5;}
	.st1{fill:#014E75;}
	.st2{fill:#F18E19;}
</style>
<path class="st0" d="M310.5,93.6H14.2C6.3,93.6,0,87.3,0,79.5V14.2C0,6.3,6.3,0,14.2,0h296.3c7.8,0,14.2,6.3,14.2,14.2v65.3
	C324.7,87.3,318.3,93.6,310.5,93.6z"/>
<g>
	<path class="st1" d="M128.4,34.7h14.3c2.3,0,4.1,0.2,5.6,0.8c1.5,0.5,2.6,1.1,3.3,2c0.8,0.8,1.3,1.6,1.6,2.6
		c0.3,0.9,0.4,1.8,0.4,2.6c0,0.8-0.2,1.6-0.4,2.5c-0.3,0.9-0.8,1.8-1.6,2.5c-0.8,0.8-1.9,1.5-3.3,2c-1.5,0.5-3.3,0.7-5.6,0.7h-8.6
		v9.8h-5.7V34.7z M134.1,46.7h8.3c0.7,0,1.3-0.1,2-0.2c0.7-0.2,1.3-0.4,1.9-0.7c0.6-0.3,1-0.7,1.4-1.3c0.3-0.6,0.5-1.2,0.5-2
		c0-0.8-0.2-1.5-0.5-2c-0.3-0.6-0.7-1-1.2-1.3s-1.1-0.6-1.8-0.7s-1.4-0.2-2.1-0.2h-8.4V46.7z"/>
	<path class="st1" d="M173,34.7h6l12.4,25.5h-6.1l-3-6.8h-12.9l-3,6.8h-5.9L173,34.7z M171,50.1h9.8l-4.9-11h-0.2L171,50.1z"/>
	<path class="st1" d="M208.8,50.2l-12.1-15.5h6.6l8.5,11.4l8.5-11.4h6.3l-12.1,15.5v10h-5.7L208.8,50.2L208.8,50.2z"/>
	<path class="st1" d="M242.5,51.7c0,1,0.2,1.8,0.7,2.5c0.4,0.7,1,1.2,1.8,1.7c0.7,0.4,1.6,0.7,2.6,1s2,0.3,3.2,0.3
		c1.2,0,2.3-0.1,3.2-0.3c0.9-0.2,1.6-0.5,2.1-0.9c0.6-0.3,1-0.7,1.1-1.2c0.2-0.5,0.3-0.9,0.3-1.4c0-1-0.2-1.7-0.8-2.2
		c-0.6-0.5-1.1-0.8-1.9-1c-1.1-0.3-2.5-0.7-4-1c-1.5-0.3-3.4-0.7-5.6-1.1c-1.4-0.3-2.5-0.7-3.5-1.1c-0.9-0.5-1.6-1-2.2-1.5
		c-0.6-0.6-0.9-1.1-1.1-1.8c-0.2-0.7-0.3-1.3-0.3-2c0-1.3,0.3-2.4,1.1-3.3c0.7-1,1.5-1.7,2.7-2.4c1.1-0.7,2.4-1.1,3.8-1.4
		c1.4-0.3,2.8-0.4,4.3-0.4c1.7,0,3.3,0.2,4.8,0.5c1.5,0.3,2.8,0.9,3.9,1.5c1.1,0.7,2,1.5,2.7,2.5c0.7,1,1,2.2,1,3.5h-5.7
		c-0.2-1.6-0.9-2.8-2.1-3.5c-1.3-0.7-2.8-1.1-4.9-1.1c-0.7,0-1.4,0.1-2,0.2c-0.7,0.1-1.3,0.3-1.9,0.6s-1.1,0.6-1.5,1.1
		c-0.4,0.4-0.6,1-0.6,1.6c0,0.9,0.3,1.6,1.1,2.1c0.7,0.5,1.6,0.9,2.8,1.1c0.1,0,0.6,0.2,1.5,0.3c0.8,0.2,1.8,0.4,2.8,0.6
		c1.1,0.2,2,0.4,3,0.7c1,0.2,1.7,0.3,2.1,0.4c1.1,0.2,2,0.7,2.8,1.1c0.8,0.5,1.5,1,2,1.5c0.5,0.6,0.9,1.2,1.1,1.9
		c0.2,0.7,0.4,1.3,0.4,2c0,1.5-0.4,2.7-1.1,3.7c-0.7,1-1.7,1.9-2.9,2.4c-1.2,0.7-2.6,1.1-4.1,1.4c-1.5,0.3-3.1,0.4-4.7,0.4
		c-1.9,0-3.6-0.2-5.2-0.6c-1.6-0.3-3.1-0.9-4.2-1.6c-1.2-0.7-2.2-1.7-2.9-2.8c-0.7-1.1-1.1-2.5-1.1-4.1L242.5,51.7L242.5,51.7z"/>
	<path class="st1" d="M277.2,34.7h5.7v25.5h-5.7V34.7z"/>
	<path class="st1" d="M302.6,51.7c0,1,0.2,1.8,0.7,2.5s1,1.2,1.8,1.7c0.7,0.4,1.6,0.7,2.6,1c1,0.2,2,0.3,3.2,0.3
		c1.2,0,2.3-0.1,3.2-0.3c0.9-0.2,1.6-0.5,2.1-0.9c0.6-0.3,1-0.7,1.1-1.2c0.2-0.5,0.3-0.9,0.3-1.4c0-1-0.2-1.7-0.8-2.2
		s-1.1-0.8-1.9-1c-1.1-0.3-2.5-0.7-4-1c-1.5-0.3-3.4-0.7-5.6-1.1c-1.4-0.3-2.5-0.7-3.5-1.1c-0.9-0.5-1.6-1-2.2-1.5
		c-0.6-0.6-0.9-1.1-1.1-1.8s-0.3-1.3-0.3-2c0-1.3,0.3-2.4,1.1-3.3c0.7-1,1.5-1.7,2.7-2.4c1.1-0.7,2.4-1.1,3.8-1.4
		c1.4-0.3,2.8-0.4,4.3-0.4c1.7,0,3.3,0.2,4.8,0.5c1.5,0.3,2.8,0.9,3.9,1.5c1.1,0.7,2,1.5,2.7,2.5c0.7,1,1,2.2,1,3.5h-5.7
		c-0.2-1.6-0.9-2.8-2.1-3.5c-1.3-0.7-2.8-1.1-4.9-1.1c-0.7,0-1.4,0.1-2,0.2c-0.7,0.1-1.3,0.3-1.9,0.6c-0.6,0.2-1.1,0.6-1.5,1.1
		c-0.4,0.4-0.6,1-0.6,1.6c0,0.9,0.3,1.6,1.1,2.1c0.7,0.5,1.6,0.9,2.8,1.1c0.1,0,0.6,0.2,1.5,0.3c0.8,0.2,1.8,0.4,2.8,0.6
		c1.1,0.2,2,0.4,3,0.7c1,0.2,1.7,0.3,2.1,0.4c1.1,0.2,2,0.7,2.8,1.1c0.8,0.5,1.5,1,2,1.5c0.5,0.6,0.9,1.2,1.1,1.9
		c0.2,0.7,0.4,1.3,0.4,2c0,1.5-0.4,2.7-1.1,3.7c-0.7,1-1.7,1.9-2.9,2.4c-1.2,0.7-2.6,1.1-4.1,1.4c-1.5,0.3-3.1,0.4-4.7,0.4
		c-1.9,0-3.6-0.2-5.2-0.6c-1.6-0.3-3.1-0.9-4.2-1.6c-1.2-0.7-2.2-1.7-2.9-2.8c-0.7-1.1-1.1-2.5-1.1-4.1L302.6,51.7L302.6,51.7z"/>
</g>
<g>
	<g id="XMLID_12_">
		<path class="st1" d="M72.1,36.3l-1.2,0.2c-0.7,0.2-1.4,0.8-1.4,1.5c0,0,0,1.4,0,3.1c0,9.5-7.6,17.1-17.1,17.1c0,0-15.8,0-28,0
			c0,5.9,0,11.9,0,11.9H10.2V46.5l0,0h40.5c2.4,0,4.4-1.9,4.8-4.2c0-2.7,0-5.9,0-5.9c0-6.4,10.2-11.7,16.6-11.7h42.4l-9.8,11.7
			C104.7,36.3,86.4,36.3,72.1,36.3z"/>
		<path class="st2" d="M98.8,51.6c-0.2,0-0.2,0-0.3,0c-9.2,0-22.2,0-29.9,0c2-2.5,3.2-5.8,3.6-9.2c3.4,0,30.5,0,30.5,0
			c7.1,0,12.9,5.8,12.9,12.9c0,8.3-6.8,15.1-15.1,15.1h-1.2H54l9-11.9c11.7,0,31.2,0,35.5,0c0.2,0,0.3,0,0.3,0l0,0
			c1.9,0,3.4-1.5,3.4-3.4C102.2,53.1,100.6,51.6,98.8,51.6z"/>
		<path class="st2" d="M59.7,26c-3.2,2-5.6,5.9-6.8,11c-0.7-0.3-1.4-0.5-2.2-0.5H10.2c0.5-0.7,9.3-11.7,9.3-11.7h33.8
			C55.5,24.6,57.7,25.1,59.7,26z"/>
	</g>
	<path class="st1" d="M117.3,76.4H8.3c-4.2,0-7.6-3.4-7.6-7.6V26.2c0-4.2,3.4-7.6,7.6-7.6h108.9c4.2,0,7.6,3.4,7.6,7.6v42.6
		C124.9,73,121.5,76.4,117.3,76.4z M8.3,19.5c-3.6,0-6.6,2.9-6.6,6.6v42.6c0,3.6,2.9,6.6,6.6,6.6h108.9c3.6,0,6.6-2.9,6.6-6.6V26.2
		c0-3.6-2.9-6.6-6.6-6.6C117.3,19.5,8.3,19.5,8.3,19.5z"/>
</g>
</svg>
